<svg fill="#017c67" version="1.1" id="Capa_1" xmlns="http://www.w3.org/2000/svg" xmlns:xlink="http://www.w3.org/1999/xlink" width="800px" height="800px" viewBox="0 0 214.868 214.868" xml:space="preserve" data-originalfillcolor="#000000" transform="rotate(0) scale(1, 1)">
<g>
	<g>
		<polygon points="94.33,45.395 73.364,81.711 115.295,81.711 &#9;&#9;"/>
		<polygon points="141.504,42.369 99.572,42.369 120.538,78.685 &#9;&#9;"/>
		<polygon points="167.712,87.764 125.781,87.764 146.746,124.079 &#9;&#9;"/>
		<polygon points="115.295,87.764 73.364,87.764 94.33,124.079 &#9;&#9;"/>
		<polygon points="68.121,90.79 47.156,127.105 89.09,127.105 &#9;&#9;"/>
		<polygon points="120.538,90.79 99.572,127.105 141.504,127.105 &#9;&#9;"/>
		<polygon points="120.538,0 99.572,36.316 141.504,36.316 &#9;&#9;"/>
		<polygon points="141.504,133.158 99.572,133.158 120.538,169.474 &#9;&#9;"/>
		<polygon points="94.33,136.185 73.364,172.5 115.295,172.5 &#9;&#9;"/>
		<polygon points="115.295,178.553 73.364,178.553 94.33,214.868 &#9;&#9;"/>
	</g>
</g>
</svg>