<?xml version="1.0" encoding="UTF-8" standalone="no" ?>
<!DOCTYPE svg PUBLIC "-//W3C//DTD SVG 1.1//EN" "http://www.w3.org/Graphics/SVG/1.1/DTD/svg11.dtd">
<svg xmlns="http://www.w3.org/2000/svg" xmlns:xlink="http://www.w3.org/1999/xlink" version="1.1" width="800" height="800" viewBox="0 0 800 800" xml:space="preserve">
<desc>Created with Fabric.js 5.2.4</desc>
<defs>
</defs>
<g transform="matrix(1 0 0 1 400 400)" id="0c45547c-7aba-4788-a68d-d4bc8469c05a"  >
<rect style="stroke: none; stroke-width: 1; stroke-dasharray: none; stroke-linecap: butt; stroke-dashoffset: 0; stroke-linejoin: miter; stroke-miterlimit: 4; fill: rgb(255,255,255); fill-rule: nonzero; opacity: 1; visibility: hidden;" vector-effect="non-scaling-stroke"  x="-400" y="-400" rx="0" ry="0" width="800" height="800" />
</g>
<g transform="matrix(Infinity NaN NaN Infinity 0 0)" id="9b95cc63-4591-4a08-a53a-e2f45ddb62a6"  >
</g>
<g transform="matrix(1.44 0 0 1.44 400 400)"  >
<g style="" vector-effect="non-scaling-stroke"   >
		<g transform="matrix(1 0 0 1 57.76 -194.18)"  >
<path style="stroke: none; stroke-width: 1; stroke-dasharray: none; stroke-linecap: butt; stroke-dashoffset: 0; stroke-linejoin: miter; stroke-miterlimit: 4; fill: rgb(0,122,102); fill-rule: nonzero; opacity: 1;" vector-effect="non-scaling-stroke"  transform=" translate(-458.44, -201.73)" d="M 449.964844 173.304688 C 442.359375 175.613281 435.808594 181.296875 431.765625 189.09375 C 429.644531 193.140625 429.261719 195.164062 429.261719 201.613281 C 429.359375 210.761719 431.089844 215 438.121094 222.316406 C 446.015625 230.597656 456.898438 233.007812 467.78125 228.960938 C 481.164062 223.953125 489.542969 210.089844 487.230469 197.089844 C 485.59375 188.035156 480.203125 180.621094 471.632812 175.613281 C 467.972656 173.496094 465.566406 172.820312 460.074219 172.628906 C 456.320312 172.4375 451.792969 172.726562 449.964844 173.304688 Z M 469.03125 177.058594 C 474.425781 179.753906 480.394531 185.820312 482.898438 191.40625 C 488.484375 203.539062 482.511719 218.660156 469.800781 224.53125 C 462.773438 227.808594 457.476562 228.289062 450.734375 226.167969 C 443.511719 223.953125 438.410156 219.910156 434.847656 213.457031 C 432.4375 209.027344 432.054688 207.390625 432.054688 201.132812 C 432.054688 192.660156 433.691406 188.613281 439.660156 182.738281 C 445.148438 177.25 449.867188 175.324219 458.148438 175.230469 C 463.0625 175.132812 466.046875 175.613281 469.03125 177.058594 Z M 469.03125 177.058594" stroke-linecap="round" />
</g>
		<g transform="matrix(1 0 0 1 161.59 -143.46)"  >
<path style="stroke: none; stroke-width: 1; stroke-dasharray: none; stroke-linecap: butt; stroke-dashoffset: 0; stroke-linejoin: miter; stroke-miterlimit: 4; fill: rgb(0,122,102); fill-rule: nonzero; opacity: 1;" vector-effect="non-scaling-stroke"  transform=" translate(-562.26, -252.44)" d="M 556 224.46875 C 543.191406 227.839844 533.371094 239.972656 533.371094 252.296875 C 533.371094 260 535.679688 266.070312 540.59375 271.558594 C 546.851562 278.585938 552.339844 280.898438 562.257812 280.898438 C 573.621094 280.898438 579.398438 277.71875 587.105469 267.417969 C 589.320312 264.527344 591.148438 257.5 591.148438 252.105469 C 591.148438 237.46875 579.59375 225.046875 564.957031 224.082031 C 561.585938 223.890625 557.636719 223.988281 556 224.46875 Z M 574.96875 229.667969 C 583.828125 234.867188 588.644531 243.148438 588.546875 253.070312 C 588.453125 260 586.71875 264.140625 581.421875 269.632812 C 576.320312 275.023438 570.734375 277.71875 563.605469 278.296875 C 558.601562 278.683594 556.867188 278.296875 551.761719 276.082031 C 544.828125 272.90625 539.148438 267.03125 537.414062 261.351562 C 535.296875 254.511719 535.96875 246.617188 538.957031 240.839844 C 542.132812 234.773438 549.257812 228.898438 555.035156 227.550781 C 561.488281 225.914062 570.347656 226.875 574.96875 229.667969 Z M 574.96875 229.667969" stroke-linecap="round" />
</g>
		<g transform="matrix(0.1 0 0 -0.1 -162.62 -7.29)"  >
<path style="stroke: rgb(0,122,102); stroke-width: 1; stroke-dasharray: none; stroke-linecap: butt; stroke-dashoffset: 0; stroke-linejoin: miter; stroke-miterlimit: 4; fill: rgb(0,122,102); fill-rule: nonzero; opacity: 1;" vector-effect="non-scaling-stroke"  transform=" translate(-3448.51, -7317.41)" d="M 3346.001424 8974.015723 C 3252.012538 8945.011816 3177.008028 8879.986273 3135.996909 8790.98687 C 3114.984288 8744.986268 3114.984288 8741.984465 3109.994804 7369.998237 C 3106.993001 6613.990096 3108.007124 5967.993978 3112.996607 5935.01471 C 3129.019745 5818.999081 3189.988798 5736.003285 3301.988501 5679.009593 C 3356.994513 5651.019808 3375.005331 5647.003883 3444.979793 5647.003883 C 3525.014351 5647.003883 3543.998726 5651.993366 3609.997827 5691.016805 C 3698.99723 5743.994571 3763.00865 5834.981654 3780.005346 5934.000588 C 3795.987918 6024.014113 3787.996632 8698.985665 3772.014059 8747.988071 C 3757.005044 8793.015116 3695.995427 8884.002198 3668.005642 8902.013016 C 3654.984307 8911.018425 3634.012251 8927.000998 3620.990917 8939.00821 C 3566.999028 8985.98237 3439.990309 9002.005508 3346.001424 8974.015723 Z M 3346.001424 8974.015723" stroke-linecap="round" />
</g>
		<g transform="matrix(1 0 0 1 56.83 -16.12)"  >
<path style="stroke: none; stroke-width: 1; stroke-dasharray: none; stroke-linecap: butt; stroke-dashoffset: 0; stroke-linejoin: miter; stroke-miterlimit: 4; fill: rgb(0,201,163); fill-rule: nonzero; opacity: 1;" vector-effect="non-scaling-stroke"  transform=" translate(-457.5, -379.79)" d="M 449.320312 247.578125 C 447.199219 248.347656 444.117188 249.601562 442.480469 250.46875 C 439.109375 252.199219 429.578125 262.214844 429.578125 263.949219 C 429.578125 264.621094 428.808594 266.355469 427.84375 267.992188 C 426.304688 270.6875 426.207031 278.007812 426.207031 380.179688 C 426.207031 480.230469 426.304688 489.761719 427.84375 492.84375 C 432.179688 502.089844 439.207031 508.445312 448.257812 511.429688 C 462.414062 516.246094 479.265625 508.925781 486.105469 494.964844 L 488.800781 489.472656 L 488.800781 269.917969 L 486.777344 265.585938 C 481.480469 254.511719 471.082031 247.289062 459.621094 246.710938 C 455.867188 246.519531 451.535156 246.902344 449.320312 247.578125 Z M 470.792969 252.296875 C 476.183594 255.089844 482.15625 261.636719 485.042969 268.28125 L 487.355469 273.386719 L 487.257812 379.023438 C 487.164062 496.117188 487.644531 488.609375 480.902344 498.140625 C 473.585938 508.347656 459.621094 512.488281 447.394531 508.058594 C 442.191406 506.132812 435.742188 500.453125 432.371094 494.964844 L 429.097656 489.570312 L 429.097656 270.882812 L 431.503906 266.066406 C 434.488281 260.097656 439.785156 254.703125 445.179688 252.199219 C 451.339844 249.3125 464.820312 249.40625 470.792969 252.296875 Z M 470.792969 252.296875" stroke-linecap="round" />
</g>
		<g transform="matrix(0.1 0 0 -0.1 -51.88 -88.9)"  >
<path style="stroke: rgb(0,122,102); stroke-width: 1; stroke-dasharray: none; stroke-linecap: butt; stroke-dashoffset: 0; stroke-linejoin: miter; stroke-miterlimit: 4; fill: rgb(0,122,102); fill-rule: nonzero; opacity: 1;" vector-effect="non-scaling-stroke"  transform=" translate(-4568.98, -8177.89)" d="M 4465.979864 8463.00633 C 4402.982566 8441.993709 4319.013212 8365.001519 4285.993379 8297.988295 C 4233.015613 8191.992197 4261.005397 8053.990389 4356.008406 7956.999701 C 4417.018023 7894.002403 4462.004503 7877.005707 4560.009315 7877.005707 C 4653.9982 7877.005707 4701.986483 7892.98828 4761.008421 7946.006611 C 4867.004518 8038.981374 4902.012031 8148.993398 4862.988593 8269.99851 C 4839.014733 8345.00302 4744.985283 8440.006029 4670.994896 8463.00633 C 4604.995795 8484.018951 4529.991285 8484.018951 4465.979864 8463.00633 Z M 4465.979864 8463.00633" stroke-linecap="round" />
</g>
		<g transform="matrix(1 0 0 1 161.33 46.83)"  >
<path style="stroke: none; stroke-width: 1; stroke-dasharray: none; stroke-linecap: butt; stroke-dashoffset: 0; stroke-linejoin: miter; stroke-miterlimit: 4; fill: rgb(0,0,0); fill-rule: nonzero; opacity: 1;" vector-effect="non-scaling-stroke"  transform=" translate(-562, -442.73)" d="M 551.214844 301.097656 C 543.125 304.175781 534.84375 312.652344 532.339844 320.355469 C 531.28125 323.4375 530.992188 347.703125 530.894531 439.761719 C 530.894531 503.316406 531.183594 557.917969 531.667969 561.097656 C 533.015625 570.4375 538.890625 577.949219 549.191406 583.148438 C 553.332031 585.265625 555.453125 585.652344 561.902344 585.652344 C 568.453125 585.652344 570.378906 585.265625 575.289062 582.761719 C 582.894531 579.007812 586.941406 574.867188 590.214844 567.644531 L 593.007812 561.671875 L 593.007812 443.230469 L 593.105469 324.785156 L 590.3125 318.71875 C 587.035156 311.59375 581.644531 305.8125 575.097656 302.539062 C 569.125 299.652344 556.992188 298.882812 551.214844 301.097656 Z M 569.894531 303.601562 C 575.867188 304.851562 583.570312 311.496094 587.710938 319.101562 L 590.601562 324.207031 L 590.601562 443.132812 C 590.601562 577.082031 591.273438 565.238281 582.992188 573.324219 C 577.601562 578.71875 576.925781 579.101562 571.820312 581.125 C 558.339844 586.230469 541.96875 579.488281 535.808594 566.390625 C 533.785156 562.058594 533.785156 561.867188 533.496094 444.191406 C 533.207031 313.421875 532.820312 321.605469 539.5625 312.84375 C 546.304688 303.984375 556.800781 300.808594 569.894531 303.601562 Z M 569.894531 303.601562" stroke-linecap="round" />
</g>
		<g transform="matrix(0.1 0 0 -0.1 -52.62 89.99)"  >
<path style="stroke: rgb(0,122,102); stroke-width: 1; stroke-dasharray: none; stroke-linecap: butt; stroke-dashoffset: 0; stroke-linejoin: miter; stroke-miterlimit: 4; fill: rgb(0,122,102); fill-rule: nonzero; opacity: 1;" vector-effect="non-scaling-stroke"  transform=" translate(-4562.09, -6339.22)" d="M 4470.006682 7730.98005 C 4362.996462 7696.013102 4278.986543 7616.019109 4246.007275 7517.000175 C 4232.012383 7474.001375 4229.984137 7346.992656 4227.996457 6337.007643 L 4226.982334 5203.989273 L 4252.010881 5149.997384 C 4299.999164 5045.015409 4376.991354 4979.989865 4485.015697 4950.985958 C 4660.986257 4904.011798 4862.999485 5031.994074 4890.015712 5206.991076 C 4895.005196 5240.010908 4898.006998 5757.984185 4896.992876 6384.995926 C 4895.005196 7504.019405 4895.005196 7504.992963 4873.992575 7550.020008 C 4841.986864 7618.006789 4786.980853 7673.986358 4723.009997 7705.992069 C 4674.981149 7728.99237 4649.993167 7733.981853 4580.018706 7736.983656 C 4533.00398 7737.997779 4484.001575 7736.010099 4470.006682 7730.98005 Z M 4470.006682 7730.98005" stroke-linecap="round" />
</g>
		<g transform="matrix(0.1 0 0 -0.1 56.39 -15.62)"  >
<path style="stroke: rgb(0,201,163); stroke-width: 1; stroke-dasharray: none; stroke-linecap: butt; stroke-dashoffset: 0; stroke-linejoin: miter; stroke-miterlimit: 4; fill: rgb(0,201,163); fill-rule: nonzero; opacity: 1;" vector-effect="non-scaling-stroke"  transform=" translate(-4562.09, -6339.23)" d="M 4470.015227 7731.000427 C 4363.005007 7695.992913 4278.995088 7615.99892 4246.01582 7516.979986 C 4231.980363 7473.981186 4229.992682 7347.013033 4228.005002 6336.987455 L 4226.990879 5204.009649 L 4252.019426 5150.01776 C 4300.007709 5044.99522 4376.999899 4980.010242 4484.983677 4951.006334 C 4660.994802 4903.991609 4863.00803 5032.01445 4889.983692 5207.011452 C 4895.01374 5239.99072 4898.015543 5758.004561 4897.001421 6385.016303 C 4895.01374 7503.999216 4895.01374 7505.013339 4874.001119 7549.999819 C 4841.995409 7617.9866 4786.989398 7674.006735 4723.018542 7706.012445 C 4674.989694 7729.012746 4650.001712 7734.00223 4579.986686 7737.004033 C 4533.012525 7738.018155 4484.01012 7735.98991 4470.015227 7731.000427 Z M 4470.015227 7731.000427" stroke-linecap="round" />
</g>
		<g transform="matrix(0.1 0 0 -0.1 55.99 -195.64)"  >
<path style="stroke: rgb(0,201,163); stroke-width: 1; stroke-dasharray: none; stroke-linecap: butt; stroke-dashoffset: 0; stroke-linejoin: miter; stroke-miterlimit: 4; fill: rgb(0,201,163); fill-rule: nonzero; opacity: 1;" vector-effect="non-scaling-stroke"  transform=" translate(-4568.98, -8177.86)" d="M 4465.98531 8462.985108 C 4402.988012 8442.013052 4319.018658 8364.980297 4285.998825 8298.007638 C 4232.980494 8192.011541 4261.010844 8054.009733 4356.013852 7957.019044 C 4416.982905 7893.981181 4462.00995 7876.984486 4560.014761 7876.984486 C 4654.003646 7876.984486 4701.991929 7893.007624 4761.013867 7945.98539 C 4867.009964 8039.000718 4902.017478 8149.012741 4862.994039 8270.017854 C 4839.02018 8344.981799 4744.990729 8439.984807 4671.000342 8462.985108 C 4605.001241 8483.997729 4529.996731 8483.997729 4465.98531 8462.985108 Z M 4465.98531 8462.985108" stroke-linecap="round" />
</g>
		<g transform="matrix(0.1 0 0 -0.1 163.11 47.86)"  >
<path style="stroke: rgb(0,201,163); stroke-width: 1; stroke-dasharray: none; stroke-linecap: butt; stroke-dashoffset: 0; stroke-linejoin: miter; stroke-miterlimit: 4; fill: rgb(0,201,163); fill-rule: nonzero; opacity: 1;" vector-effect="non-scaling-stroke"  transform=" translate(-4562.1, -6339.22)" d="M 4470.017575 7731.005487 C 4363.007354 7696.012463 4278.997436 7616.006883 4246.018167 7517.016928 C 4231.98271 7474.000745 4229.99503 7346.986237 4228.00735 6337.009957 L 4226.993227 5204.011915 L 4251.981209 5149.996849 C 4300.010056 5045.017775 4377.002247 4980.003825 4484.986025 4950.999919 C 4660.997149 4903.99099 4863.010378 5031.984851 4889.98604 5206.987641 C 4895.016088 5239.984292 4898.017891 5757.986522 4897.003768 6384.998239 C 4895.016088 7503.984004 4895.016088 7505.001024 4874.003467 7550.01358 C 4841.997757 7618.003256 4786.991745 7674.014695 4722.980324 7705.994327 C 4674.992041 7729.009114 4650.00406 7733.981213 4579.989033 7736.994606 C 4533.014873 7738.011626 4484.012467 7736.015253 4470.017575 7731.005487 Z M 4470.017575 7731.005487" stroke-linecap="round" />
</g>
		<g transform="matrix(0.1 0 0 -0.1 161.56 -142.58)"  >
<path style="stroke: rgb(0,201,163); stroke-width: 1; stroke-dasharray: none; stroke-linecap: butt; stroke-dashoffset: 0; stroke-linejoin: miter; stroke-miterlimit: 4; fill: rgb(0,201,163); fill-rule: nonzero; opacity: 1;" vector-effect="non-scaling-stroke"  transform=" translate(-4568.97, -8177.87)" d="M 4465.988691 8462.987691 C 4402.991393 8442.015635 4318.981474 8364.982879 4286.002206 8298.010221 C 4232.983874 8192.014123 4261.014224 8054.012315 4356.017232 7956.981062 C 4416.986285 7893.983764 4462.01333 7876.987068 4560.018141 7876.987068 C 4654.007027 7876.987068 4701.99531 7893.010206 4761.017247 7945.987972 C 4867.013345 8039.0033 4901.980293 8149.015323 4862.997419 8269.979871 C 4838.982995 8344.984381 4744.99411 8439.987389 4671.003722 8462.987691 C 4605.004621 8484.000312 4530.000111 8484.000312 4465.988691 8462.987691 Z M 4465.988691 8462.987691" stroke-linecap="round" />
</g>
</g>
</g>
</svg>